# Exported from Wings 3D 1.5.4
mtllib busstation.mtl
o Cube14
#8 vertices, 6 faces
v -8.27620000 -2.48193988 -16.12203760
v -8.27620000 -2.48193988 16.12203760
v -8.27620000 -0.48193988 -16.12203760
v -8.27620000 -0.48193988 16.12203760
v 8.27620000 -2.48193988 -16.12203760
v 8.27620000 -2.48193988 16.12203760
v 8.27620000 -0.48193988 -16.12203760
v 8.27620000 -0.48193988 16.12203760
vn -0.57735027 -0.57735027 -0.57735027
vn -0.57735027 -0.57735027 0.57735027
vn -0.57735027 0.57735027 -0.57735027
vn -0.57735027 0.57735027 0.57735027
vn 0.57735027 -0.57735027 -0.57735027
vn 0.57735027 -0.57735027 0.57735027
vn 0.57735027 0.57735027 -0.57735027
vn 0.57735027 0.57735027 0.57735027
g Cube14_RoadMat
usemtl RoadMat
s 1
f 1//1 5//5 6//6 2//2
f 2//2 4//4 3//3 1//1
f 2//2 6//6 8//8 4//4
f 3//3 7//7 5//5 1//1
f 4//4 8//8 7//7 3//3
f 5//5 7//7 8//8 6//6
o Cube13
#8 vertices, 6 faces
v -5.21826560 -0.44005920 -16.17346480
v -5.21826560 -0.44005920 16.17346480
v -5.21826560 4.10434080 -16.17346480
v -5.21826560 4.10434080 16.17346480
v -3.21826560 -0.44005920 -16.17346480
v -3.21826560 -0.44005920 16.17346480
v -3.21826560 4.10434080 -16.17346480
v -3.21826560 4.10434080 16.17346480
vn -0.57735027 -0.57735027 -0.57735027
vn -0.57735027 -0.57735027 0.57735027
vn -0.57735027 0.57735027 -0.57735027
vn -0.57735027 0.57735027 0.57735027
vn 0.57735027 -0.57735027 -0.57735027
vn 0.57735027 -0.57735027 0.57735027
vn 0.57735027 0.57735027 -0.57735027
vn 0.57735027 0.57735027 0.57735027
g Cube13_WallMat
usemtl WallMat
s 1
f 9//9 13//13 14//14 10//10
f 10//10 12//12 11//11 9//9
f 10//10 14//14 16//16 12//12
f 11//11 15//15 13//13 9//9
f 12//12 16//16 15//15 11//11
f 13//13 15//15 16//16 14//14
o Cube12
#8 vertices, 6 faces
v -3.27500000 -0.44216447 -16.14625514
v -3.27500000 -0.44216447 16.14625514
v -3.27500000 -0.11760000 -16.14625514
v -3.27500000 -0.11760000 16.14625514
v 3.27500000 -0.44216447 -16.14625514
v 3.27500000 -0.44216447 16.14625514
v 3.27500000 -0.11760000 -16.14625514
v 3.27500000 -0.11760000 16.14625514
vn -0.57735027 -0.57735027 -0.57735027
vn -0.57735027 -0.57735027 0.57735027
vn -0.57735027 0.57735027 -0.57735027
vn -0.57735027 0.57735027 0.57735027
vn 0.57735027 -0.57735027 -0.57735027
vn 0.57735027 -0.57735027 0.57735027
vn 0.57735027 0.57735027 -0.57735027
vn 0.57735027 0.57735027 0.57735027
g Cube12_GroundMat
usemtl GroundMat
s 1
f 17//17 21//21 22//22 18//18
f 18//18 20//20 19//19 17//17
f 18//18 22//22 24//24 20//20
f 19//19 23//23 21//21 17//17
f 20//20 24//24 23//23 19//19
f 21//21 23//23 24//24 22//22
o Cube8_copy11
#8 vertices, 6 faces
v -0.93762222 9.0666667e-2 2.43323344
v -0.87642222 9.0666667e-2 2.43323344
v -0.93762222 1.58826667 2.43323344
v -0.87642222 1.58826667 2.43323344
v -0.93762222 9.0666667e-2 -0.76781122
v -0.87642222 9.0666667e-2 -0.76781122
v -0.93762222 1.58826667 -0.76781122
v -0.87642222 1.58826667 -0.76781122
vn -0.57735027 -0.57735027 0.57735027
vn 0.57735027 -0.57735027 0.57735027
vn -0.57735027 0.57735027 0.57735027
vn 0.57735027 0.57735027 0.57735027
vn -0.57735027 -0.57735027 -0.57735027
vn 0.57735027 -0.57735027 -0.57735027
vn -0.57735027 0.57735027 -0.57735027
vn 0.57735027 0.57735027 -0.57735027
g Cube8_copy11_GlasMat
usemtl GlasMat
s 1
f 25//25 29//29 30//30 26//26
f 26//26 28//28 27//27 25//25
f 26//26 30//30 32//32 28//28
f 27//27 31//31 29//29 25//25
f 28//28 32//32 31//31 27//27
f 29//29 31//31 32//32 30//30
o Cube8_copy10
#8 vertices, 6 faces
v 0.83091111 9.0666667e-2 0.60171641
v 0.89211111 9.0666667e-2 0.60171641
v 0.83091111 1.58826667 0.60171641
v 0.89211111 1.58826667 0.60171641
v 0.83091111 9.0666667e-2 -0.80793863
v 0.89211111 9.0666667e-2 -0.80793863
v 0.83091111 1.58826667 -0.80793863
v 0.89211111 1.58826667 -0.80793863
vn -0.57735027 -0.57735027 0.57735027
vn 0.57735027 -0.57735027 0.57735027
vn -0.57735027 0.57735027 0.57735027
vn 0.57735027 0.57735027 0.57735027
vn -0.57735027 -0.57735027 -0.57735027
vn 0.57735027 -0.57735027 -0.57735027
vn -0.57735027 0.57735027 -0.57735027
vn 0.57735027 0.57735027 -0.57735027
g Cube8_copy10_GlasMat
usemtl GlasMat
s 1
f 33//33 37//37 38//38 34//34
f 34//34 36//36 35//35 33//33
f 34//34 38//38 40//40 36//36
f 35//35 39//39 37//37 33//33
f 36//36 40//40 39//39 35//35
f 37//37 39//39 40//40 38//38
o Cube8_copy9
#8 vertices, 6 faces
v -0.88280000 9.0666667e-2 2.45473333
v -0.88280000 9.0666667e-2 2.51593333
v -0.88280000 1.58826667 2.45473333
v -0.88280000 1.58826667 2.51593333
v 0.88280000 9.0666667e-2 2.45473333
v 0.88280000 9.0666667e-2 2.51593333
v 0.88280000 1.58826667 2.45473333
v 0.88280000 1.58826667 2.51593333
vn -0.57735027 -0.57735027 -0.57735027
vn -0.57735027 -0.57735027 0.57735027
vn -0.57735027 0.57735027 -0.57735027
vn -0.57735027 0.57735027 0.57735027
vn 0.57735027 -0.57735027 -0.57735027
vn 0.57735027 -0.57735027 0.57735027
vn 0.57735027 0.57735027 -0.57735027
vn 0.57735027 0.57735027 0.57735027
g Cube8_copy9_GlasMat
usemtl GlasMat
s 1
f 41//41 45//45 46//46 42//42
f 42//42 44//44 43//43 41//41
f 42//42 46//46 48//48 44//44
f 43//43 47//47 45//45 41//41
f 44//44 48//48 47//47 43//43
f 45//45 47//47 48//48 46//46
o Cube8
#8 vertices, 6 faces
v -0.88280000 9.0666667e-2 -0.85051111
v -0.88280000 9.0666667e-2 -0.78931111
v -0.88280000 1.58826667 -0.85051111
v -0.88280000 1.58826667 -0.78931111
v 0.88280000 9.0666667e-2 -0.85051111
v 0.88280000 9.0666667e-2 -0.78931111
v 0.88280000 1.58826667 -0.85051111
v 0.88280000 1.58826667 -0.78931111
vn -0.57735027 -0.57735027 -0.57735027
vn -0.57735027 -0.57735027 0.57735027
vn -0.57735027 0.57735027 -0.57735027
vn -0.57735027 0.57735027 0.57735027
vn 0.57735027 -0.57735027 -0.57735027
vn 0.57735027 -0.57735027 0.57735027
vn 0.57735027 0.57735027 -0.57735027
vn 0.57735027 0.57735027 0.57735027
g Cube8_GlasMat
usemtl GlasMat
s 1
f 49//49 53//53 54//54 50//50
f 50//50 52//52 51//51 49//49
f 50//50 54//54 56//56 52//52
f 51//51 55//55 53//53 49//49
f 52//52 56//56 55//55 51//51
f 53//53 55//55 56//56 54//54
o Cube3_copy7
#8 vertices, 6 faces
v 0.76691111 -0.13208889 0.45828889
v 0.76691111 -0.13208889 0.61548889
v 0.76691111 1.86791111 0.45828889
v 0.76691111 1.86791111 0.61548889
v 0.92411111 -0.13208889 0.45828889
v 0.92411111 -0.13208889 0.61548889
v 0.92411111 1.86791111 0.45828889
v 0.92411111 1.86791111 0.61548889
vn -0.57735027 -0.57735027 -0.57735027
vn -0.57735027 -0.57735027 0.57735027
vn -0.57735027 0.57735027 -0.57735027
vn -0.57735027 0.57735027 0.57735027
vn 0.57735027 -0.57735027 -0.57735027
vn 0.57735027 -0.57735027 0.57735027
vn 0.57735027 0.57735027 -0.57735027
vn 0.57735027 0.57735027 0.57735027
g Cube3_copy7_BusStationMat
usemtl BusStationMat
s 1
f 57//57 61//61 62//62 58//58
f 58//58 60//60 59//59 57//57
f 58//58 62//62 64//64 60//60
f 59//59 63//63 61//61 57//57
f 60//60 64//64 63//63 59//59
f 61//61 63//63 64//64 62//62
o Cube3_copy6
#8 vertices, 6 faces
v -0.97460000 -0.13208889 2.38380000
v -0.97460000 -0.13208889 2.54100000
v -0.97460000 1.86791111 2.38380000
v -0.97460000 1.86791111 2.54100000
v -0.81740000 -0.13208889 2.38380000
v -0.81740000 -0.13208889 2.54100000
v -0.81740000 1.86791111 2.38380000
v -0.81740000 1.86791111 2.54100000
vn -0.57735027 -0.57735027 -0.57735027
vn -0.57735027 -0.57735027 0.57735027
vn -0.57735027 0.57735027 -0.57735027
vn -0.57735027 0.57735027 0.57735027
vn 0.57735027 -0.57735027 -0.57735027
vn 0.57735027 -0.57735027 0.57735027
vn 0.57735027 0.57735027 -0.57735027
vn 0.57735027 0.57735027 0.57735027
g Cube3_copy6_BusStationMat
usemtl BusStationMat
s 1
f 65//65 69//69 70//70 66//66
f 66//66 68//68 67//67 65//65
f 66//66 70//70 72//72 68//68
f 67//67 71//71 69//69 65//65
f 68//68 72//72 71//71 67//67
f 69//69 71//71 72//72 70//70
o Cube3_copy5
#8 vertices, 6 faces
v 0.76691111 -0.13208889 2.38380000
v 0.76691111 -0.13208889 2.54100000
v 0.76691111 1.86791111 2.38380000
v 0.76691111 1.86791111 2.54100000
v 0.92411111 -0.13208889 2.38380000
v 0.92411111 -0.13208889 2.54100000
v 0.92411111 1.86791111 2.38380000
v 0.92411111 1.86791111 2.54100000
vn -0.57735027 -0.57735027 -0.57735027
vn -0.57735027 -0.57735027 0.57735027
vn -0.57735027 0.57735027 -0.57735027
vn -0.57735027 0.57735027 0.57735027
vn 0.57735027 -0.57735027 -0.57735027
vn 0.57735027 -0.57735027 0.57735027
vn 0.57735027 0.57735027 -0.57735027
vn 0.57735027 0.57735027 0.57735027
g Cube3_copy5_BusStationMat
usemtl BusStationMat
s 1
f 73//73 77//77 78//78 74//74
f 74//74 76//76 75//75 73//73
f 74//74 78//78 80//80 76//76
f 75//75 79//79 77//77 73//73
f 76//76 80//80 79//79 75//75
f 77//77 79//79 80//80 78//78
o Cube3_copy4
#8 vertices, 6 faces
v -0.97460000 -0.13208889 -0.88286667
v -0.97460000 -0.13208889 -0.72566667
v -0.97460000 1.86791111 -0.88286667
v -0.97460000 1.86791111 -0.72566667
v -0.81740000 -0.13208889 -0.88286667
v -0.81740000 -0.13208889 -0.72566667
v -0.81740000 1.86791111 -0.88286667
v -0.81740000 1.86791111 -0.72566667
vn -0.57735027 -0.57735027 -0.57735027
vn -0.57735027 -0.57735027 0.57735027
vn -0.57735027 0.57735027 -0.57735027
vn -0.57735027 0.57735027 0.57735027
vn 0.57735027 -0.57735027 -0.57735027
vn 0.57735027 -0.57735027 0.57735027
vn 0.57735027 0.57735027 -0.57735027
vn 0.57735027 0.57735027 0.57735027
g Cube3_copy4_BusStationMat
usemtl BusStationMat
s 1
f 81//81 85//85 86//86 82//82
f 82//82 84//84 83//83 81//81
f 82//82 86//86 88//88 84//84
f 83//83 87//87 85//85 81//81
f 84//84 88//88 87//87 83//83
f 85//85 87//87 88//88 86//86
o Cube3
#8 vertices, 6 faces
v 0.76691111 -0.13208889 -0.88286667
v 0.76691111 -0.13208889 -0.72566667
v 0.76691111 1.86791111 -0.88286667
v 0.76691111 1.86791111 -0.72566667
v 0.92411111 -0.13208889 -0.88286667
v 0.92411111 -0.13208889 -0.72566667
v 0.92411111 1.86791111 -0.88286667
v 0.92411111 1.86791111 -0.72566667
vn -0.57735027 -0.57735027 -0.57735027
vn -0.57735027 -0.57735027 0.57735027
vn -0.57735027 0.57735027 -0.57735027
vn -0.57735027 0.57735027 0.57735027
vn 0.57735027 -0.57735027 -0.57735027
vn 0.57735027 -0.57735027 0.57735027
vn 0.57735027 0.57735027 -0.57735027
vn 0.57735027 0.57735027 0.57735027
g Cube3_BusStationMat
usemtl BusStationMat
s 1
f 89//89 93//93 94//94 90//90
f 90//90 92//92 91//91 89//89
f 90//90 94//94 96//96 92//92
f 91//91 95//95 93//93 89//89
f 92//92 96//96 95//95 91//91
f 93//93 95//95 96//96 94//94
o Cube2
#20 vertices, 12 faces
v -1.00000000 1.64355556 -1.00000000
v -1.00000000 1.64355556 2.57937778
v 1.00000000 1.64355556 -1.00000000
v 1.00000000 1.64355556 2.57937778
v -1.00000000 1.98204444 -1.00000000
v -0.87303505 2.28856495 -1.00000000
v -0.40088889 2.58115556 -1.00000000
v -0.70740940 2.45419060 -1.00000000
v -1.00000000 1.98204444 2.57937778
v -0.87303505 2.28856495 2.57937778
v -0.70740940 2.45419060 2.57937778
v -0.40088889 2.58115556 2.57937778
v 0.40088889 2.58115556 -1.00000000
v 0.70740940 2.45419060 -1.00000000
v 1.00000000 1.98204444 -1.00000000
v 0.87303505 2.28856495 -1.00000000
v 0.40088889 2.58115556 2.57937778
v 0.70740940 2.45419060 2.57937778
v 0.87303505 2.28856495 2.57937778
v 1.00000000 1.98204444 2.57937778
vn -0.57735027 -0.57735027 -0.57735027
vn -0.57735027 -0.57735027 0.57735027
vn 0.57735027 -0.57735027 -0.57735027
vn 0.57735027 -0.57735027 0.57735027
vn -0.87379058 0.17380775 -0.45418155
vn -0.74076389 0.49496261 -0.45418155
vn -0.17380775 0.87379058 -0.45418155
vn -0.49496261 0.74076389 -0.45418155
vn -0.87379058 0.17380775 0.45418155
vn -0.74076389 0.49496261 0.45418155
vn -0.49496261 0.74076389 0.45418155
vn -0.17380775 0.87379058 0.45418155
vn 0.17380775 0.87379058 -0.45418155
vn 0.49496261 0.74076389 -0.45418155
vn 0.87379058 0.17380775 -0.45418155
vn 0.74076389 0.49496261 -0.45418155
vn 0.17380775 0.87379058 0.45418155
vn 0.49496261 0.74076389 0.45418155
vn 0.74076389 0.49496261 0.45418155
vn 0.87379058 0.17380775 0.45418155
g Cube2_BusStationMat
usemtl BusStationMat
s 1
f 97//97 99//99 100//100 98//98
f 98//98 100//100 116//116 115//115 114//114 113//113 108//108 107//107 106//106 105//105
f 98//98 105//105 101//101 97//97
f 99//99 111//111 116//116 100//100
f 101//101 102//102 104//104 103//103 109//109 110//110 112//112 111//111 99//99 97//97
f 102//102 106//106 107//107 104//104
f 103//103 108//108 113//113 109//109
f 104//104 107//107 108//108 103//103
f 106//106 102//102 101//101 105//105
f 110//110 109//109 113//113 114//114
f 110//110 114//114 115//115 112//112
f 112//112 115//115 116//116 111//111
