# Exported from Wings 3D 1.5.4
mtllib busstation.mtl
o Cube16_copy21
#8 vertices, 6 faces
v -3.37035653 3.05058656 5.93693209
v -3.37035653 3.05058656 7.93693209
v -3.37035653 5.05058656 5.93693209
v -3.37035653 5.05058656 7.93693209
v -3.12435653 3.05058656 5.93693209
v -3.12435653 3.05058656 7.93693209
v -3.12435653 5.05058656 5.93693209
v -3.12435653 5.05058656 7.93693209
vn -0.57735027 -0.57735027 -0.57735027
vn -0.57735027 -0.57735027 0.57735027
vn -0.57735027 0.57735027 -0.57735027
vn -0.57735027 0.57735027 0.57735027
vn 0.57735027 -0.57735027 -0.57735027
vn 0.57735027 -0.57735027 0.57735027
vn 0.57735027 0.57735027 -0.57735027
vn 0.57735027 0.57735027 0.57735027
g Cube16_copy21_WhiteLineMat
usemtl WhiteLineMat
s 1
f 1//1 5//5 6//6 2//2
f 2//2 4//4 3//3 1//1
f 2//2 6//6 8//8 4//4
f 3//3 7//7 5//5 1//1
f 4//4 8//8 7//7 3//3
f 5//5 7//7 8//8 6//6
o Cube16_copy20
#8 vertices, 6 faces
v -3.37035653 3.05058656 -10.52470678
v -3.37035653 3.05058656 -8.52470678
v -3.37035653 5.05058656 -10.52470678
v -3.37035653 5.05058656 -8.52470678
v -3.12435653 3.05058656 -10.52470678
v -3.12435653 3.05058656 -8.52470678
v -3.12435653 5.05058656 -10.52470678
v -3.12435653 5.05058656 -8.52470678
vn -0.57735027 -0.57735027 -0.57735027
vn -0.57735027 -0.57735027 0.57735027
vn -0.57735027 0.57735027 -0.57735027
vn -0.57735027 0.57735027 0.57735027
vn 0.57735027 -0.57735027 -0.57735027
vn 0.57735027 -0.57735027 0.57735027
vn 0.57735027 0.57735027 -0.57735027
vn 0.57735027 0.57735027 0.57735027
g Cube16_copy20_WhiteLineMat
usemtl WhiteLineMat
s 1
f 9//9 13//13 14//14 10//10
f 10//10 12//12 11//11 9//9
f 10//10 14//14 16//16 12//12
f 11//11 15//15 13//13 9//9
f 12//12 16//16 15//15 11//11
f 13//13 15//15 16//16 14//14
o Cube16_copy19
#8 vertices, 6 faces
v -3.37035653 3.05058656 -8.02470369
v -3.37035653 3.05058656 -6.02470369
v -3.37035653 5.05058656 -8.02470369
v -3.37035653 5.05058656 -6.02470369
v -3.12435653 3.05058656 -8.02470369
v -3.12435653 3.05058656 -6.02470369
v -3.12435653 5.05058656 -8.02470369
v -3.12435653 5.05058656 -6.02470369
vn -0.57735027 -0.57735027 -0.57735027
vn -0.57735027 -0.57735027 0.57735027
vn -0.57735027 0.57735027 -0.57735027
vn -0.57735027 0.57735027 0.57735027
vn 0.57735027 -0.57735027 -0.57735027
vn 0.57735027 -0.57735027 0.57735027
vn 0.57735027 0.57735027 -0.57735027
vn 0.57735027 0.57735027 0.57735027
g Cube16_copy19_WhiteLineMat
usemtl WhiteLineMat
s 1
f 17//17 21//21 22//22 18//18
f 18//18 20//20 19//19 17//17
f 18//18 22//22 24//24 20//20
f 19//19 23//23 21//21 17//17
f 20//20 24//24 23//23 19//19
f 21//21 23//23 24//24 22//22
o Cube16_copy18
#8 vertices, 6 faces
v -3.37035653 3.05058656 -3.45909259
v -3.37035653 3.05058656 -1.45909259
v -3.37035653 5.05058656 -3.45909259
v -3.37035653 5.05058656 -1.45909259
v -3.12435653 3.05058656 -3.45909259
v -3.12435653 3.05058656 -1.45909259
v -3.12435653 5.05058656 -3.45909259
v -3.12435653 5.05058656 -1.45909259
vn -0.57735027 -0.57735027 -0.57735027
vn -0.57735027 -0.57735027 0.57735027
vn -0.57735027 0.57735027 -0.57735027
vn -0.57735027 0.57735027 0.57735027
vn 0.57735027 -0.57735027 -0.57735027
vn 0.57735027 -0.57735027 0.57735027
vn 0.57735027 0.57735027 -0.57735027
vn 0.57735027 0.57735027 0.57735027
g Cube16_copy18_WhiteLineMat
usemtl WhiteLineMat
s 1
f 25//25 29//29 30//30 26//26
f 26//26 28//28 27//27 25//25
f 26//26 30//30 32//32 28//28
f 27//27 31//31 29//29 25//25
f 28//28 32//32 31//31 27//27
f 29//29 31//31 32//32 30//30
o Cube16_copy17
#8 vertices, 6 faces
v -3.37035653 3.05058656 3.44064814
v -3.37035653 3.05058656 5.44064814
v -3.37035653 5.05058656 3.44064814
v -3.37035653 5.05058656 5.44064814
v -3.12435653 3.05058656 3.44064814
v -3.12435653 3.05058656 5.44064814
v -3.12435653 5.05058656 3.44064814
v -3.12435653 5.05058656 5.44064814
vn -0.57735027 -0.57735027 -0.57735027
vn -0.57735027 -0.57735027 0.57735027
vn -0.57735027 0.57735027 -0.57735027
vn -0.57735027 0.57735027 0.57735027
vn 0.57735027 -0.57735027 -0.57735027
vn 0.57735027 -0.57735027 0.57735027
vn 0.57735027 0.57735027 -0.57735027
vn 0.57735027 0.57735027 0.57735027
g Cube16_copy17_WhiteLineMat
usemtl WhiteLineMat
s 1
f 33//33 37//37 38//38 34//34
f 34//34 36//36 35//35 33//33
f 34//34 38//38 40//40 36//36
f 35//35 39//39 37//37 33//33
f 36//36 40//40 39//39 35//35
f 37//37 39//39 40//40 38//38
o Cube16
#8 vertices, 6 faces
v -3.37035653 3.05058656 -1.00000000
v -3.37035653 3.05058656 1.00000000
v -3.37035653 5.05058656 -1.00000000
v -3.37035653 5.05058656 1.00000000
v -3.12435653 3.05058656 -1.00000000
v -3.12435653 3.05058656 1.00000000
v -3.12435653 5.05058656 -1.00000000
v -3.12435653 5.05058656 1.00000000
vn -0.57735027 -0.57735027 -0.57735027
vn -0.57735027 -0.57735027 0.57735027
vn -0.57735027 0.57735027 -0.57735027
vn -0.57735027 0.57735027 0.57735027
vn 0.57735027 -0.57735027 -0.57735027
vn 0.57735027 -0.57735027 0.57735027
vn 0.57735027 0.57735027 -0.57735027
vn 0.57735027 0.57735027 0.57735027
g Cube16_WhiteLineMat
usemtl WhiteLineMat
s 1
f 41//41 45//45 46//46 42//42
f 42//42 44//44 43//43 41//41
f 42//42 46//46 48//48 44//44
f 43//43 47//47 45//45 41//41
f 44//44 48//48 47//47 43//43
f 45//45 47//47 48//48 46//46
o Cube15
#32 vertices, 26 faces
v 1.71958792 3.13493279 3.88194469
v 0.96106822 3.13493279 3.88194469
v 0.96106822 3.13493279 4.41834469
v 1.71958792 3.13493279 4.41834469
v 1.71958792 3.24329399 3.88194469
v 0.96106822 3.24329399 3.88194469
v 0.96106822 3.24329399 4.41834469
v 1.71958792 3.24329399 4.41834469
v 1.64693194 3.31594997 3.95460067
v 1.03372419 3.31594997 3.95460067
v 1.03372419 3.31594997 4.34568871
v 1.64693194 3.31594997 4.34568871
v 1.22310735 -0.25979699 4.05014469
v 1.26877682 -0.25979699 4.09581416
v 1.11444630 -0.25979699 4.05014469
v 1.06877682 -0.25979699 4.09581416
v 1.22310735 3.10900301 4.05014469
v 1.31150308 3.11146054 4.03420330
v 1.26877682 3.10900301 4.09581416
v 1.11444630 3.10900301 4.05014469
v 1.06877682 3.10900301 4.09581416
v 1.04435365 3.11488264 4.01200496
v 1.26877682 -0.25979699 4.20447522
v 1.22310735 -0.25979699 4.25014469
v 1.11444630 -0.25979699 4.25014469
v 1.06877682 -0.25979699 4.20447522
v 1.26877682 3.10900301 4.20447522
v 1.31150308 3.11146054 4.26608609
v 1.22310735 3.10900301 4.25014469
v 1.11444630 3.10900301 4.25014469
v 1.04435365 3.11488264 4.28828443
v 1.06877682 3.10900301 4.20447522
vn 0.41821342 -0.78573474 -0.45576141
vn -0.47694955 -0.75773296 -0.44537613
vn -0.47694955 -0.75773296 0.44537613
vn 0.41821342 -0.78573474 0.45576141
vn 0.61013148 0.50544947 -0.61013148
vn -0.61013148 0.50544947 -0.61013148
vn -0.61013148 0.50544947 0.61013148
vn 0.61013148 0.50544947 0.61013148
vn 0.27059805 0.92387953 -0.27059805
vn -0.27059805 0.92387953 -0.27059805
vn -0.27059805 0.92387953 0.27059805
vn 0.27059805 0.92387953 0.27059805
vn 0.33655677 -0.47596315 -0.81251992
vn 0.81251992 -0.47596315 -0.33655677
vn -0.33655677 -0.47596315 -0.81251992
vn -0.81251992 -0.47596315 -0.33655677
vn 0.25782710 -0.70143421 -0.66446613
vn 2.7056567e-2 -0.99790406 -5.8782833e-2
vn 0.64344779 -0.71891856 -0.26292782
vn -0.26611891 -0.69403500 -0.66895153
vn -0.68686218 -0.67789863 -0.26205686
vn -9.6756729e-2 -0.99289034 -6.9331934e-2
vn 0.81251992 -0.47596315 0.33655677
vn 0.33655677 -0.47596315 0.81251992
vn -0.33655677 -0.47596315 0.81251992
vn -0.81251992 -0.47596315 0.33655677
vn 0.64344779 -0.71891856 0.26292782
vn 2.7056567e-2 -0.99790406 5.8782833e-2
vn 0.25782710 -0.70143421 0.66446613
vn -0.26611891 -0.69403500 0.66895153
vn -9.6756729e-2 -0.99289034 6.9331934e-2
vn -0.68686218 -0.67789863 0.26205686
g Cube15_StreetLamp
usemtl StreetLamp
s 1
f 49//49 53//53 56//56 52//52
f 49//49 66//66 65//65 68//68 70//70 50//50
f 50//50 54//54 53//53 49//49
f 50//50 70//70 69//69 80//80 79//79 51//51
f 51//51 55//55 54//54 50//50
f 51//51 79//79 78//78 77//77 76//76 52//52
f 52//52 56//56 55//55 51//51
f 52//52 76//76 75//75 67//67 66//66 49//49
f 54//54 55//55 59//59 58//58
f 55//55 56//56 60//60 59//59
f 56//56 53//53 57//57 60//60
f 58//58 57//57 53//53 54//54
f 58//58 59//59 60//60 57//57
f 61//61 62//62 71//71 72//72 73//73 74//74 64//64 63//63
f 62//62 67//67 75//75 71//71
f 63//63 64//64 69//69 68//68
f 63//63 68//68 65//65 61//61
f 65//65 67//67 62//62 61//61
f 66//66 67//67 65//65
f 68//68 69//69 70//70
f 72//72 77//77 78//78 73//73
f 74//74 73//73 78//78 80//80
f 74//74 80//80 69//69 64//64
f 75//75 77//77 72//72 71//71
f 77//77 75//75 76//76
f 79//79 80//80 78//78
o Cube14
#8 vertices, 6 faces
v -8.27620000 -2.48193988 -16.12203760
v -8.27620000 -2.48193988 16.12203760
v -8.27620000 -0.48193988 -16.12203760
v -8.27620000 -0.48193988 16.12203760
v 8.27620000 -2.48193988 -16.12203760
v 8.27620000 -2.48193988 16.12203760
v 8.27620000 -0.48193988 -16.12203760
v 8.27620000 -0.48193988 16.12203760
vn -0.57735027 -0.57735027 -0.57735027
vn -0.57735027 -0.57735027 0.57735027
vn -0.57735027 0.57735027 -0.57735027
vn -0.57735027 0.57735027 0.57735027
vn 0.57735027 -0.57735027 -0.57735027
vn 0.57735027 -0.57735027 0.57735027
vn 0.57735027 0.57735027 -0.57735027
vn 0.57735027 0.57735027 0.57735027
g Cube14_RoadMat
usemtl RoadMat
s 1
f 81//81 85//85 86//86 82//82
f 82//82 84//84 83//83 81//81
f 82//82 86//86 88//88 84//84
f 83//83 87//87 85//85 81//81
f 84//84 88//88 87//87 83//83
f 85//85 87//87 88//88 86//86
o Cube13
#8 vertices, 6 faces
v -5.21826560 -0.44005920 -16.17346480
v -5.21826560 -0.44005920 16.17346480
v -5.21826560 7.90268042 -16.17346480
v -5.21826560 7.90268042 16.17346480
v -3.21826560 -0.44005920 -16.17346480
v -3.21826560 -0.44005920 16.17346480
v -3.21826560 7.90268042 -16.17346480
v -3.21826560 7.90268042 16.17346480
vn -0.57735027 -0.57735027 -0.57735027
vn -0.57735027 -0.57735027 0.57735027
vn -0.57735027 0.57735027 -0.57735027
vn -0.57735027 0.57735027 0.57735027
vn 0.57735027 -0.57735027 -0.57735027
vn 0.57735027 -0.57735027 0.57735027
vn 0.57735027 0.57735027 -0.57735027
vn 0.57735027 0.57735027 0.57735027
g Cube13_WallMat
usemtl WallMat
s 1
f 89//89 93//93 94//94 90//90
f 90//90 92//92 91//91 89//89
f 90//90 94//94 96//96 92//92
f 91//91 95//95 93//93 89//89
f 92//92 96//96 95//95 91//91
f 93//93 95//95 96//96 94//94
o Cube12
#10 vertices, 7 faces
v -3.27500000 -0.44216447 -16.14625514
v -3.27500000 -0.44216447 16.14625514
v 3.27500000 -0.44216447 -16.14625514
v 3.27500000 -0.44216447 16.14625514
v 3.27500000 -0.11760000 -16.14625514
v 3.27500000 -0.11760000 16.14625514
v -3.27500000 -0.16326947 -16.14625514
v -3.22933053 -0.11760000 -16.14625514
v -3.27500000 -0.16326947 16.14625514
v -3.22933053 -0.11760000 16.14625514
vn -0.57735027 -0.57735027 -0.57735027
vn -0.57735027 -0.57735027 0.57735027
vn 0.57735027 -0.57735027 -0.57735027
vn 0.57735027 -0.57735027 0.57735027
vn 0.57735027 0.57735027 -0.57735027
vn 0.57735027 0.57735027 0.57735027
vn -0.81251992 0.33655677 -0.47596315
vn -0.33655677 0.81251992 -0.47596315
vn -0.81251992 0.33655677 0.47596315
vn -0.33655677 0.81251992 0.47596315
g Cube12_GroundMat
usemtl GroundMat
s 1
f 97//97 99//99 100//100 98//98
f 98//98 100//100 102//102 106//106 105//105
f 98//98 105//105 103//103 97//97
f 99//99 101//101 102//102 100//100
f 101//101 104//104 106//106 102//102
f 103//103 104//104 101//101 99//99 97//97
f 103//103 105//105 106//106 104//104
o Cube8_copy11
#8 vertices, 6 faces
v -0.93762222 9.0666667e-2 2.43323344
v -0.87642222 9.0666667e-2 2.43323344
v -0.93762222 1.58826667 2.43323344
v -0.87642222 1.58826667 2.43323344
v -0.93762222 9.0666667e-2 -0.76781122
v -0.87642222 9.0666667e-2 -0.76781122
v -0.93762222 1.58826667 -0.76781122
v -0.87642222 1.58826667 -0.76781122
vn -0.57735027 -0.57735027 0.57735027
vn 0.57735027 -0.57735027 0.57735027
vn -0.57735027 0.57735027 0.57735027
vn 0.57735027 0.57735027 0.57735027
vn -0.57735027 -0.57735027 -0.57735027
vn 0.57735027 -0.57735027 -0.57735027
vn -0.57735027 0.57735027 -0.57735027
vn 0.57735027 0.57735027 -0.57735027
g Cube8_copy11_GlasMat
usemtl GlasMat
s 1
f 107//107 111//111 112//112 108//108
f 108//108 110//110 109//109 107//107
f 108//108 112//112 114//114 110//110
f 109//109 113//113 111//111 107//107
f 110//110 114//114 113//113 109//109
f 111//111 113//113 114//114 112//112
o Cube8_copy10
#8 vertices, 6 faces
v 0.83091111 9.0666667e-2 0.60171641
v 0.89211111 9.0666667e-2 0.60171641
v 0.83091111 1.58826667 0.60171641
v 0.89211111 1.58826667 0.60171641
v 0.83091111 9.0666667e-2 -0.80793863
v 0.89211111 9.0666667e-2 -0.80793863
v 0.83091111 1.58826667 -0.80793863
v 0.89211111 1.58826667 -0.80793863
vn -0.57735027 -0.57735027 0.57735027
vn 0.57735027 -0.57735027 0.57735027
vn -0.57735027 0.57735027 0.57735027
vn 0.57735027 0.57735027 0.57735027
vn -0.57735027 -0.57735027 -0.57735027
vn 0.57735027 -0.57735027 -0.57735027
vn -0.57735027 0.57735027 -0.57735027
vn 0.57735027 0.57735027 -0.57735027
g Cube8_copy10_GlasMat
usemtl GlasMat
s 1
f 115//115 119//119 120//120 116//116
f 116//116 118//118 117//117 115//115
f 116//116 120//120 122//122 118//118
f 117//117 121//121 119//119 115//115
f 118//118 122//122 121//121 117//117
f 119//119 121//121 122//122 120//120
o Cube8_copy9
#8 vertices, 6 faces
v -0.88280000 9.0666667e-2 2.45473333
v -0.88280000 9.0666667e-2 2.51593333
v -0.88280000 1.58826667 2.45473333
v -0.88280000 1.58826667 2.51593333
v 0.88280000 9.0666667e-2 2.45473333
v 0.88280000 9.0666667e-2 2.51593333
v 0.88280000 1.58826667 2.45473333
v 0.88280000 1.58826667 2.51593333
vn -0.57735027 -0.57735027 -0.57735027
vn -0.57735027 -0.57735027 0.57735027
vn -0.57735027 0.57735027 -0.57735027
vn -0.57735027 0.57735027 0.57735027
vn 0.57735027 -0.57735027 -0.57735027
vn 0.57735027 -0.57735027 0.57735027
vn 0.57735027 0.57735027 -0.57735027
vn 0.57735027 0.57735027 0.57735027
g Cube8_copy9_GlasMat
usemtl GlasMat
s 1
f 123//123 127//127 128//128 124//124
f 124//124 126//126 125//125 123//123
f 124//124 128//128 130//130 126//126
f 125//125 129//129 127//127 123//123
f 126//126 130//130 129//129 125//125
f 127//127 129//129 130//130 128//128
o Cube8
#8 vertices, 6 faces
v -0.88280000 9.0666667e-2 -0.85051111
v -0.88280000 9.0666667e-2 -0.78931111
v -0.88280000 1.58826667 -0.85051111
v -0.88280000 1.58826667 -0.78931111
v 0.88280000 9.0666667e-2 -0.85051111
v 0.88280000 9.0666667e-2 -0.78931111
v 0.88280000 1.58826667 -0.85051111
v 0.88280000 1.58826667 -0.78931111
vn -0.57735027 -0.57735027 -0.57735027
vn -0.57735027 -0.57735027 0.57735027
vn -0.57735027 0.57735027 -0.57735027
vn -0.57735027 0.57735027 0.57735027
vn 0.57735027 -0.57735027 -0.57735027
vn 0.57735027 -0.57735027 0.57735027
vn 0.57735027 0.57735027 -0.57735027
vn 0.57735027 0.57735027 0.57735027
g Cube8_GlasMat
usemtl GlasMat
s 1
f 131//131 135//135 136//136 132//132
f 132//132 134//134 133//133 131//131
f 132//132 136//136 138//138 134//134
f 133//133 137//137 135//135 131//131
f 134//134 138//138 137//137 133//133
f 135//135 137//137 138//138 136//136
o Cube3_copy7
#8 vertices, 6 faces
v 0.76691111 -0.13208889 0.45828889
v 0.76691111 -0.13208889 0.61548889
v 0.76691111 1.86791111 0.45828889
v 0.76691111 1.86791111 0.61548889
v 0.92411111 -0.13208889 0.45828889
v 0.92411111 -0.13208889 0.61548889
v 0.92411111 1.86791111 0.45828889
v 0.92411111 1.86791111 0.61548889
vn -0.57735027 -0.57735027 -0.57735027
vn -0.57735027 -0.57735027 0.57735027
vn -0.57735027 0.57735027 -0.57735027
vn -0.57735027 0.57735027 0.57735027
vn 0.57735027 -0.57735027 -0.57735027
vn 0.57735027 -0.57735027 0.57735027
vn 0.57735027 0.57735027 -0.57735027
vn 0.57735027 0.57735027 0.57735027
g Cube3_copy7_BusStationMat
usemtl BusStationMat
s 1
f 139//139 143//143 144//144 140//140
f 140//140 142//142 141//141 139//139
f 140//140 144//144 146//146 142//142
f 141//141 145//145 143//143 139//139
f 142//142 146//146 145//145 141//141
f 143//143 145//145 146//146 144//144
o Cube3_copy6
#8 vertices, 6 faces
v -0.97460000 -0.13208889 2.38380000
v -0.97460000 -0.13208889 2.54100000
v -0.97460000 1.86791111 2.38380000
v -0.97460000 1.86791111 2.54100000
v -0.81740000 -0.13208889 2.38380000
v -0.81740000 -0.13208889 2.54100000
v -0.81740000 1.86791111 2.38380000
v -0.81740000 1.86791111 2.54100000
vn -0.57735027 -0.57735027 -0.57735027
vn -0.57735027 -0.57735027 0.57735027
vn -0.57735027 0.57735027 -0.57735027
vn -0.57735027 0.57735027 0.57735027
vn 0.57735027 -0.57735027 -0.57735027
vn 0.57735027 -0.57735027 0.57735027
vn 0.57735027 0.57735027 -0.57735027
vn 0.57735027 0.57735027 0.57735027
g Cube3_copy6_BusStationMat
usemtl BusStationMat
s 1
f 147//147 151//151 152//152 148//148
f 148//148 150//150 149//149 147//147
f 148//148 152//152 154//154 150//150
f 149//149 153//153 151//151 147//147
f 150//150 154//154 153//153 149//149
f 151//151 153//153 154//154 152//152
o Cube3_copy5
#8 vertices, 6 faces
v 0.76691111 -0.13208889 2.38380000
v 0.76691111 -0.13208889 2.54100000
v 0.76691111 1.86791111 2.38380000
v 0.76691111 1.86791111 2.54100000
v 0.92411111 -0.13208889 2.38380000
v 0.92411111 -0.13208889 2.54100000
v 0.92411111 1.86791111 2.38380000
v 0.92411111 1.86791111 2.54100000
vn -0.57735027 -0.57735027 -0.57735027
vn -0.57735027 -0.57735027 0.57735027
vn -0.57735027 0.57735027 -0.57735027
vn -0.57735027 0.57735027 0.57735027
vn 0.57735027 -0.57735027 -0.57735027
vn 0.57735027 -0.57735027 0.57735027
vn 0.57735027 0.57735027 -0.57735027
vn 0.57735027 0.57735027 0.57735027
g Cube3_copy5_BusStationMat
usemtl BusStationMat
s 1
f 155//155 159//159 160//160 156//156
f 156//156 158//158 157//157 155//155
f 156//156 160//160 162//162 158//158
f 157//157 161//161 159//159 155//155
f 158//158 162//162 161//161 157//157
f 159//159 161//161 162//162 160//160
o Cube3_copy4
#8 vertices, 6 faces
v -0.97460000 -0.13208889 -0.88286667
v -0.97460000 -0.13208889 -0.72566667
v -0.97460000 1.86791111 -0.88286667
v -0.97460000 1.86791111 -0.72566667
v -0.81740000 -0.13208889 -0.88286667
v -0.81740000 -0.13208889 -0.72566667
v -0.81740000 1.86791111 -0.88286667
v -0.81740000 1.86791111 -0.72566667
vn -0.57735027 -0.57735027 -0.57735027
vn -0.57735027 -0.57735027 0.57735027
vn -0.57735027 0.57735027 -0.57735027
vn -0.57735027 0.57735027 0.57735027
vn 0.57735027 -0.57735027 -0.57735027
vn 0.57735027 -0.57735027 0.57735027
vn 0.57735027 0.57735027 -0.57735027
vn 0.57735027 0.57735027 0.57735027
g Cube3_copy4_BusStationMat
usemtl BusStationMat
s 1
f 163//163 167//167 168//168 164//164
f 164//164 166//166 165//165 163//163
f 164//164 168//168 170//170 166//166
f 165//165 169//169 167//167 163//163
f 166//166 170//170 169//169 165//165
f 167//167 169//169 170//170 168//168
o Cube3
#8 vertices, 6 faces
v 0.76691111 -0.13208889 -0.88286667
v 0.76691111 -0.13208889 -0.72566667
v 0.76691111 1.86791111 -0.88286667
v 0.76691111 1.86791111 -0.72566667
v 0.92411111 -0.13208889 -0.88286667
v 0.92411111 -0.13208889 -0.72566667
v 0.92411111 1.86791111 -0.88286667
v 0.92411111 1.86791111 -0.72566667
vn -0.57735027 -0.57735027 -0.57735027
vn -0.57735027 -0.57735027 0.57735027
vn -0.57735027 0.57735027 -0.57735027
vn -0.57735027 0.57735027 0.57735027
vn 0.57735027 -0.57735027 -0.57735027
vn 0.57735027 -0.57735027 0.57735027
vn 0.57735027 0.57735027 -0.57735027
vn 0.57735027 0.57735027 0.57735027
g Cube3_BusStationMat
usemtl BusStationMat
s 1
f 171//171 175//175 176//176 172//172
f 172//172 174//174 173//173 171//171
f 172//172 176//176 178//178 174//174
f 173//173 177//177 175//175 171//171
f 174//174 178//178 177//177 173//173
f 175//175 177//177 178//178 176//176
o Cube2
#20 vertices, 12 faces
v -1.00000000 1.64355556 -1.00000000
v -1.00000000 1.64355556 2.57937778
v 1.00000000 1.64355556 -1.00000000
v 1.00000000 1.64355556 2.57937778
v -1.00000000 1.98204444 -1.00000000
v -0.87303505 2.28856495 -1.00000000
v -0.40088889 2.58115556 -1.00000000
v -0.70740940 2.45419060 -1.00000000
v -1.00000000 1.98204444 2.57937778
v -0.87303505 2.28856495 2.57937778
v -0.70740940 2.45419060 2.57937778
v -0.40088889 2.58115556 2.57937778
v 0.40088889 2.58115556 -1.00000000
v 0.70740940 2.45419060 -1.00000000
v 1.00000000 1.98204444 -1.00000000
v 0.87303505 2.28856495 -1.00000000
v 0.40088889 2.58115556 2.57937778
v 0.70740940 2.45419060 2.57937778
v 0.87303505 2.28856495 2.57937778
v 1.00000000 1.98204444 2.57937778
vn -0.57735027 -0.57735027 -0.57735027
vn -0.57735027 -0.57735027 0.57735027
vn 0.57735027 -0.57735027 -0.57735027
vn 0.57735027 -0.57735027 0.57735027
vn -0.87379058 0.17380775 -0.45418155
vn -0.74076389 0.49496261 -0.45418155
vn -0.17380775 0.87379058 -0.45418155
vn -0.49496261 0.74076389 -0.45418155
vn -0.87379058 0.17380775 0.45418155
vn -0.74076389 0.49496261 0.45418155
vn -0.49496261 0.74076389 0.45418155
vn -0.17380775 0.87379058 0.45418155
vn 0.17380775 0.87379058 -0.45418155
vn 0.49496261 0.74076389 -0.45418155
vn 0.87379058 0.17380775 -0.45418155
vn 0.74076389 0.49496261 -0.45418155
vn 0.17380775 0.87379058 0.45418155
vn 0.49496261 0.74076389 0.45418155
vn 0.74076389 0.49496261 0.45418155
vn 0.87379058 0.17380775 0.45418155
g Cube2_BusStationMat
usemtl BusStationMat
s 1
f 179//179 181//181 182//182 180//180
f 180//180 182//182 198//198 197//197 196//196 195//195 190//190 189//189 188//188 187//187
f 180//180 187//187 183//183 179//179
f 181//181 193//193 198//198 182//182
f 183//183 184//184 186//186 185//185 191//191 192//192 194//194 193//193 181//181 179//179
f 184//184 188//188 189//189 186//186
f 185//185 190//190 195//195 191//191
f 186//186 189//189 190//190 185//185
f 188//188 184//184 183//183 187//187
f 192//192 191//191 195//195 196//196
f 192//192 196//196 197//197 194//194
f 194//194 197//197 198//198 193//193
